<?xml version="1.0" encoding="utf-8"?>
<!-- Generator: Adobe Illustrator 25.2.0, SVG Export Plug-In . SVG Version: 6.00 Build 0)  -->
<svg version="1.1" id="Layer_1" xmlns="http://www.w3.org/2000/svg" xmlns:xlink="http://www.w3.org/1999/xlink" x="0px" y="0px"
	 viewBox="0 0 32 32" style="enable-background:new 0 0 32 32;" xml:space="preserve">
<style type="text/css">
	.st0{fill:#003C57;}
</style>
<g id="Artwork_32x32">
	<path class="st0" d="M15.8,16.5V16h1.3v-0.8h-1.3v-0.7c0-0.2,0-0.3,0.1-0.5c0.1-0.1,0.3-0.2,0.4-0.2c0.3,0,0.7,0.1,1,0.2l0.3-0.8
		c-0.4-0.2-0.9-0.3-1.4-0.3c-0.4,0-0.8,0.1-1.1,0.4c-0.3,0.3-0.4,0.7-0.4,1.1v0.7h-0.6V16h0.6v0.5c0,0.2,0,0.4-0.1,0.6
		c-0.1,0.2-0.3,0.3-0.5,0.4v0.9h3.8v-0.9h-2.6C15.6,17.2,15.8,16.9,15.8,16.5z"/>
	<path class="st0" d="M6.5,19C4,19,2,21,2,23.5S4,28,6.5,28s4.5-2,4.5-4.5C11,21,9,19,6.5,19z M8.1,25.7H4.8v-0.8
		c0.2-0.1,0.3-0.2,0.5-0.3c0.1-0.2,0.1-0.3,0.1-0.5v-0.5H4.8v-0.7h0.6v-0.6c0-0.4,0.1-0.7,0.4-1c0.3-0.2,0.6-0.4,1-0.4
		c0.4,0,0.9,0.1,1.3,0.3l-0.3,0.7c-0.3-0.1-0.6-0.2-0.9-0.2c-0.1,0-0.3,0-0.4,0.1c-0.1,0.1-0.2,0.3-0.1,0.4v0.6h1.2v0.7H6.3v0.5
		c0,0.3-0.2,0.7-0.5,0.8h2.3V25.7z"/>
	<path class="st0" d="M29,8H3C2.4,8,2,8.4,2,9v11.4c1.7-2.5,5.1-3.1,7.6-1.4c1.5,1,2.4,2.7,2.4,4.5c0,0.2,0,0.3,0,0.5h17
		c0.6,0,1-0.4,1-1V9C30,8.4,29.6,8,29,8z M8,11.5H5.5V14H4v-4h4V11.5z M16,21c-2.8,0-5-2.2-5-5s2.2-5,5-5s5,2.2,5,5S18.8,21,16,21z
		 M28,22h-4v-1.5h2.5V18H28V22z M28,14h-1.5v-2.5H24V10h4V14z"/>
</g>
</svg>
