<?xml version="1.0" encoding="utf-8"?>
<!-- Generator: Adobe Illustrator 25.2.0, SVG Export Plug-In . SVG Version: 6.00 Build 0)  -->
<svg version="1.1" id="Layer_1" xmlns="http://www.w3.org/2000/svg" xmlns:xlink="http://www.w3.org/1999/xlink" x="0px" y="0px"
	 viewBox="0 0 64 64" style="enable-background:new 0 0 64 64;" xml:space="preserve">
<style type="text/css">
	.st0{fill:#003C57;}
	.st1{fill:#FFFFFF;}
	.st2{fill:#4D7789;}
</style>
<g id="Artwork_64x64">
	<path class="st0" d="M6,16h52c1.1,0,2,0.9,2,2v28c0,1.1-0.9,2-2,2H6c-1.1,0-2-0.9-2-2V18C4,16.9,4.9,16,6,16z"/>
	<circle class="st1" cx="31.9" cy="32" r="10"/>
	<path class="st0" d="M32.6,26.1c1,0,1.9,0.2,2.8,0.6l-0.7,1.6c-0.6-0.3-1.3-0.4-1.9-0.5c-0.3,0-0.6,0.1-0.9,0.3
		c-0.2,0.3-0.3,0.6-0.3,0.9v1.4h2.7v1.6h-2.7v1c0,0.8-0.4,1.4-1.1,1.8h5.1v1.8h-7.5V35c0.4-0.1,0.7-0.4,1-0.7
		c0.2-0.3,0.3-0.7,0.3-1.1v-1h-1.3v-1.6h1.3v-1.4c-0.1-0.8,0.2-1.6,0.8-2.2C30.9,26.4,31.7,26.1,32.6,26.1z"/>
	<path class="st2" d="M14,36C8.5,36,4,40.5,4,46s4.5,10,10,10s10-4.5,10-10S19.5,36,14,36z"/>
	<path class="st1" d="M14,54.5c-4.7,0-8.5-3.8-8.5-8.5s3.8-8.5,8.5-8.5s8.5,3.8,8.5,8.5C22.5,50.7,18.7,54.5,14,54.5z M14,38.5
		c-4.1,0-7.5,3.4-7.5,7.5s3.4,7.5,7.5,7.5s7.5-3.4,7.5-7.5S18.1,38.5,14,38.5L14,38.5z"/>
	<path class="st1" d="M14.4,41.1c0.8,0,1.6,0.2,2.3,0.5l-0.6,1.4c-0.5-0.2-1.1-0.4-1.6-0.4c-0.3,0-0.5,0.1-0.7,0.3
		c-0.2,0.2-0.3,0.5-0.2,0.8v1.2h2.2v1.3h-2.2v0.9c0,0.6-0.3,1.2-0.9,1.5H17V50h-6.3v-1.5c0.3-0.1,0.6-0.3,0.9-0.6
		c0.2-0.3,0.2-0.6,0.2-0.9v-0.9h-1v-1.3h1.1v-1.2c0-0.7,0.2-1.4,0.7-1.9C13,41.3,13.7,41,14.4,41.1z"/>
	<polygon class="st1" points="48,20 48,23 53,23 53,28 56,28 56,20 	"/>
	<polygon class="st1" points="16,20 8,20 8,28 11,28 11,23 16,23 	"/>
	<polygon class="st1" points="53,36 53,41 48,41 48,44 56,44 56,36 	"/>
</g>
</svg>
