<?xml version="1.0" encoding="utf-8"?>
<!-- Generator: Adobe Illustrator 25.2.0, SVG Export Plug-In . SVG Version: 6.00 Build 0)  -->
<svg version="1.1" id="Artwork_16x16" xmlns="http://www.w3.org/2000/svg" xmlns:xlink="http://www.w3.org/1999/xlink" x="0px"
	 y="0px" viewBox="0 0 16 16" style="enable-background:new 0 0 16 16;" xml:space="preserve">
<style type="text/css">
	.st0{fill:#003C57;}
</style>
<path class="st0" d="M14.5,4h-13C1.2,4,1,4.2,1,4.5v7C1,11.8,1.2,12,1.5,12h13c0.3,0,0.5-0.2,0.5-0.5v-7C15,4.2,14.8,4,14.5,4z
	 M4,11H2V9h0.8v1.2H4V11z M4,5.8H2.8V7H2V5h2V5.8z M9.6,10.2H6.2V9.4c0.2-0.1,0.3-0.2,0.4-0.3C6.8,9,6.8,8.8,6.8,8.6V8.1H6.2V7.4
	h0.6V6.8c0-0.4,0.1-0.7,0.4-1c0.3-0.2,0.6-0.4,1-0.3c0.4,0,0.9,0.1,1.3,0.3L9.1,6.5C8.9,6.3,8.6,6.3,8.3,6.3c-0.1,0-0.3,0-0.4,0.2
	C7.8,6.5,7.7,6.7,7.7,6.8v0.6H9v0.7H7.8v0.5c0,0.3-0.2,0.7-0.5,0.8h2.3L9.6,10.2z M14,11h-2v-0.8h1.2V9H14V11z M14,7h-0.8V5.8H12V5
	h2V7z"/>
</svg>
